HIERARCHY
ROOT Hips
{
	OFFSET 0.000000 0.000000 0.000000
	CHANNELS 6 Xposition Yposition Zposition Zrotation Yrotation Xrotation 
	JOINT LHipJoint
	{
		OFFSET 0.000000 0.000000 0.000000
		CHANNELS 3 Zrotation Yrotation Xrotation
		JOINT LeftUpLeg
		{
			OFFSET 1.363060 -1.794630 0.839290
			CHANNELS 3 Zrotation Yrotation Xrotation
			JOINT LeftLeg
			{
				OFFSET 2.448110 -6.726130 0.000000
				CHANNELS 3 Zrotation Yrotation Xrotation
				JOINT LeftFoot
				{
					OFFSET 2.562200 -7.039590 0.000000
					CHANNELS 3 Zrotation Yrotation Xrotation
					JOINT LeftToeBase
					{
						OFFSET 0.157640 -0.433110 2.322550
						CHANNELS 3 Zrotation Yrotation Xrotation
						End Site
						{
							OFFSET 0.000000 0.000000 0.000000
						}
					}
				}
			}
		}
	}
	JOINT RHipJoint
	{
		OFFSET 0.000000 0.000000 0.000000
		CHANNELS 3 Zrotation Yrotation Xrotation
		JOINT RightUpLeg
		{
			OFFSET -1.305520 -1.794630 0.839290
			CHANNELS 3 Zrotation Yrotation Xrotation
			JOINT RightLeg
			{
				OFFSET -2.542530 -6.985550 0.000000
				CHANNELS 3 Zrotation Yrotation Xrotation
				JOINT RightFoot
				{
					OFFSET -2.568260 -7.056230 0.000000
					CHANNELS 3 Zrotation Yrotation Xrotation
					JOINT RightToeBase
					{
						OFFSET -0.164730 -0.452590 2.363150
						CHANNELS 3 Zrotation Yrotation Xrotation
						End Site
						{
							OFFSET 0.000000 0.000000 0.000000
						}
					}
				}
			}
		}
	}
	JOINT LowerBack
	{
		OFFSET 0.000000 0.000000 0.000000
		CHANNELS 3 Zrotation Yrotation Xrotation
		JOINT Spine
		{
			OFFSET 0.028270 2.035590 -0.193380
			CHANNELS 3 Zrotation Yrotation Xrotation
			JOINT Spine1
			{
				OFFSET 0.056720 2.048850 -0.042750
				CHANNELS 3 Zrotation Yrotation Xrotation
				JOINT Neck
				{
					OFFSET 0.000000 0.000000 0.000000
					CHANNELS 3 Zrotation Yrotation Xrotation
					JOINT Neck1
					{
						OFFSET -0.054170 1.746240 0.172020
						CHANNELS 3 Zrotation Yrotation Xrotation
						JOINT Head
						{
							OFFSET 0.104070 1.761360 -0.123970
							CHANNELS 3 Zrotation Yrotation Xrotation
							End Site
							{
								OFFSET 0.000000 0.000000 0.000000
							}
						}
					}
				}
				JOINT LeftShoulder
				{
					OFFSET 0.000000 0.000000 0.000000
					CHANNELS 3 Zrotation Yrotation Xrotation
					JOINT LeftArm
					{
						OFFSET 3.362410 1.200890 -0.311210
						CHANNELS 3 Zrotation Yrotation Xrotation
						JOINT LeftForeArm
						{
							OFFSET 4.983000 -0.000000 -0.000000
							CHANNELS 3 Zrotation Yrotation Xrotation
							JOINT LeftHand
							{
								OFFSET 3.483560 -0.000000 -0.000000
								CHANNELS 3 Zrotation Yrotation Xrotation
								JOINT LeftFingerBase
								{
									OFFSET 0.000000 0.000000 0.000000
									CHANNELS 3 Zrotation Yrotation Xrotation
									JOINT LeftHandIndex1
									{
										OFFSET 0.715260 -0.000000 -0.000000
										CHANNELS 3 Zrotation Yrotation Xrotation
										End Site
										{
											OFFSET 0.000000 0.000000 0.000000
										}
									}
								}
								JOINT LThumb
								{
									OFFSET 0.000000 0.000000 0.000000
									CHANNELS 3 Zrotation Yrotation Xrotation
									End Site
									{
										OFFSET 0.000000 0.000000 0.000000
									}
								}
							}
						}
					}
				}
				JOINT RightShoulder
				{
					OFFSET 0.000000 0.000000 0.000000
					CHANNELS 3 Zrotation Yrotation Xrotation
					JOINT RightArm
					{
						OFFSET -3.136600 1.374050 -0.404650
						CHANNELS 3 Zrotation Yrotation Xrotation
						JOINT RightForeArm
						{
							OFFSET -5.241900 -0.000000 -0.000000
							CHANNELS 3 Zrotation Yrotation Xrotation
							JOINT RightHand
							{
								OFFSET -3.444170 -0.000000 -0.000000
								CHANNELS 3 Zrotation Yrotation Xrotation
								JOINT RightFingerBase
								{
									OFFSET 0.000000 0.000000 0.000000
									CHANNELS 3 Zrotation Yrotation Xrotation
									JOINT RightHandIndex1
									{
										OFFSET -0.622530 -0.000000 -0.000000
										CHANNELS 3 Zrotation Yrotation Xrotation
										End Site
										{
											OFFSET 0.000000 0.000000 0.000000
										}
									}
								}
								JOINT RThumb
								{
									OFFSET 0.000000 0.000000 0.000000
									CHANNELS 3 Zrotation Yrotation Xrotation
									End Site
									{
										OFFSET 0.000000 0.000000 0.000000
									}
								}
							}
						}
					}
				}
			}
		}
	}
}
MOTION
Frames: 9
Frame Time: 0.008333
-0.870040 17.927146 2.256967 0.882099 -14.855036 8.114209 -2.355825 2.618999 2.590168 -16.121650 -4.849425 -8.369458 -0.480369 5.730103 19.000313 -3.874269 17.045730 -11.020997 0.900200 -6.046900 -16.920600 1.016010 -2.701430 1.528126 9.009740 12.900429 -16.963733 -1.288763 -9.133753 27.378868 -0.507836 0.784529 -4.764888 -0.047800 -1.410500 3.879100 -3.273147 -1.001586 -3.266650 1.800854 -1.836124 -2.883120 5.090894 -0.419608 -0.881651 -13.025021 -8.552564 -15.899370 5.833620 -9.134459 18.430209 3.193200 -4.789800 13.243300 -10.838690 -0.335732 -1.886571 -78.692262 2.267464 29.897282 11.387306 -22.292238 -2.596033 -0.198338 -1.609279 10.301888 13.783304 23.112176 5.837500 -7.125000 0.000000 0.000000 -16.748000 54.611200 -4.039600 9.654033 2.071783 -1.378983 71.405003 0.039676 22.241693 -15.437178 22.330100 -3.765016 0.658725 -0.500235 17.867294 -18.693065 1.787003 -0.730800 7.125000 0.000000 0.000000 5.477900 -27.773900 2.303900 
-0.865609 17.926340 2.259485 0.772743 -14.901917 8.033817 -2.353315 2.625780 2.593550 -16.033382 -4.805488 -8.365749 -0.453208 5.793622 19.181536 -3.860478 17.015620 -11.133365 0.899300 -6.043700 -16.911200 1.025267 -2.715902 1.535374 9.131071 13.034312 -16.742935 -1.269857 -9.093840 27.280770 -0.470797 0.599794 -4.856139 -0.039100 -1.276500 3.509900 -3.237990 -0.980696 -3.208323 1.835541 -1.808869 -2.845934 5.120486 -0.406753 -0.861887 -13.026451 -8.524538 -15.834556 5.794396 -9.098321 18.404392 3.186100 -4.781400 13.210000 -10.838184 -0.340477 -1.880579 -78.751331 2.184810 29.775584 11.351556 -22.231832 -2.578817 -0.214945 -1.601445 10.517885 14.028904 22.962005 5.916100 -7.125000 0.000000 0.000000 -16.409700 54.510500 -3.913800 9.654873 2.071125 -1.377866 71.371238 0.068512 22.390433 -15.476150 22.374023 -3.779385 0.672365 -0.486864 17.743166 -18.725875 1.558072 -0.646100 7.125000 0.000000 0.000000 5.457100 -28.031100 2.261800 
-0.862789 17.924930 2.259988 0.368923 -14.908748 7.944716 -2.345195 2.644621 2.608776 -15.604489 -4.760668 -8.398319 -0.404275 5.911326 19.499537 -3.832711 16.919304 -11.273978 0.888800 -6.009300 -16.811500 1.052584 -2.742945 1.547246 9.591478 13.275843 -16.337862 -1.233043 -9.010454 27.093583 -0.416300 0.335606 -5.040071 -0.031300 -1.142900 3.142100 -2.883009 -0.950567 -3.004023 1.899023 -1.775412 -2.828683 5.016048 -0.384758 -0.965729 -12.877073 -8.464031 -15.789806 5.565643 -9.049957 18.477722 3.082500 -4.778000 13.199100 -10.837900 -0.357454 -1.875304 -78.646455 2.183438 29.872536 11.297580 -22.153035 -2.557746 -0.224794 -1.592378 10.568232 14.173838 22.697072 5.922200 -7.125000 0.000000 0.000000 -16.114800 54.275900 -3.747400 9.655644 2.058717 -1.382830 71.390756 0.007540 22.628808 -15.509459 22.415078 -3.792390 0.682656 -0.480409 17.513381 -18.789259 1.468247 -0.614500 7.125000 0.000000 0.000000 5.407200 -28.131700 2.228000 
-0.860574 17.923823 2.261096 -0.137123 -14.959925 7.775064 -2.333605 2.683647 2.643070 -15.088710 -4.674543 -8.272024 -0.368012 5.990195 19.709019 -3.826472 16.889363 -11.391565 0.879100 -5.977300 -16.718500 1.077786 -2.775222 1.555944 10.198950 13.477867 -15.886546 -1.211199 -8.950022 26.987256 -0.364313 0.096772 -5.194056 -0.024200 -1.004700 2.761800 -2.391475 -0.888942 -2.727395 1.965200 -1.695607 -2.755210 4.842392 -0.346953 -1.038521 -12.799073 -8.452172 -15.800642 5.443655 -9.046775 18.518456 3.024700 -4.785300 13.206600 -10.837300 -0.369433 -1.870208 -78.498991 2.141090 30.127506 11.294418 -22.149710 -2.554723 -0.226919 -1.595503 10.399142 14.276901 22.746616 5.981900 -7.125000 0.000000 0.000000 -16.033100 54.348200 -3.756200 9.657715 2.057630 -1.380723 71.463394 0.055248 22.651009 -15.486374 22.381122 -3.781175 0.685846 -0.482039 17.482490 -18.820957 1.448473 -0.609100 7.125000 0.000000 0.000000 5.380900 -28.151200 2.214600 
-0.856747 17.922816 2.260895 -0.296162 -15.012053 7.676084 -2.328953 2.697205 2.652033 -14.949008 -4.715895 -8.191526 -0.344651 6.046227 19.872388 -3.814047 16.881540 -11.597773 0.851500 -5.885100 -16.451400 1.088486 -2.791134 1.559957 10.382408 13.639374 -15.649352 -1.192802 -8.909044 26.890884 -0.324995 -0.085267 -5.243304 -0.026100 -1.043000 2.867200 -2.255753 -0.857731 -2.655890 1.978568 -1.653398 -2.688054 4.783306 -0.330343 -0.984975 -12.789699 -8.424936 -15.889832 5.377643 -8.995127 18.591994 3.005600 -4.770000 13.243900 -10.838169 -0.380505 -1.860568 -78.435555 1.960847 30.312766 11.230474 -22.045590 -2.523405 -0.233814 -1.597345 10.219620 14.444355 22.785400 6.069500 -7.125000 0.000000 0.000000 -15.875900 54.422900 -3.747200 9.658023 2.058397 -1.380855 71.536139 0.148197 22.650079 -15.517046 22.414618 -3.795556 0.685374 -0.495304 17.625878 -18.967026 1.545261 -0.652900 7.125000 0.000000 0.000000 5.260300 -28.036000 2.179000 
-0.851410 17.925434 2.260592 -0.262368 -15.031221 7.697834 -2.328133 2.687895 2.642023 -15.005508 -4.718664 -8.271602 -0.329666 6.082932 19.979249 -3.799124 16.842630 -11.638340 0.851700 -5.885800 -16.453600 1.091604 -2.789560 1.559908 10.311827 13.708767 -15.641328 -1.179078 -8.885936 26.815883 -0.302829 -0.189592 -5.233358 -0.029600 -1.111100 3.054500 -2.275135 -0.851547 -2.738266 1.946936 -1.644649 -2.677095 4.744263 -0.327878 -0.921189 -12.823400 -8.405103 -15.881154 5.368336 -8.958868 18.634822 3.016400 -4.760800 13.256300 -10.839840 -0.384269 -1.856796 -78.389083 1.876294 30.365684 11.208213 -22.009564 -2.512366 -0.236960 -1.598505 10.158445 14.516611 22.815262 6.110500 -7.125000 0.000000 0.000000 -15.815200 54.468200 -3.750000 9.652771 2.060436 -1.381213 71.614488 0.211662 22.615678 -15.555965 22.465067 -3.816341 0.662920 -0.523237 17.908314 -19.035038 1.967388 -0.817500 7.125000 0.000000 0.000000 5.198100 -27.557800 2.211900 
-0.846275 17.926038 2.259686 -0.222044 -14.975674 7.646397 -2.327384 2.691382 2.641016 -15.060518 -4.769285 -8.234319 -0.326259 6.090675 20.003172 -3.806120 16.871200 -11.631952 0.858900 -5.910200 -16.524000 1.096848 -2.796532 1.563142 10.260589 13.860661 -15.526935 -1.177904 -8.882109 26.808330 -0.280872 -0.327646 -5.413820 -0.031500 -1.145900 3.150200 -2.266620 -0.833701 -2.706697 1.884641 -1.619171 -2.667367 4.646534 -0.316264 -0.932633 -12.836670 -8.455404 -15.819476 5.364267 -9.035770 18.649559 3.007300 -4.797100 13.260200 -10.846474 -0.386827 -1.852951 -78.306501 1.803452 30.422778 11.179181 -21.963051 -2.497410 -0.242172 -1.600735 10.295989 14.552390 22.927746 6.153500 -7.125000 0.000000 0.000000 -15.837900 54.587700 -3.802200 9.646185 2.065195 -1.379533 71.699873 0.226127 22.434537 -15.545311 22.455879 -3.816361 0.638753 -0.550954 18.328311 -19.063155 2.354533 -0.967900 7.125000 0.000000 0.000000 5.170100 -27.118100 2.253600 
-0.839528 17.925937 2.258679 -0.258154 -14.892926 7.567903 -2.325832 2.702113 2.645737 -15.035865 -4.905608 -8.115959 -0.328288 6.089853 20.002596 -3.812028 16.906837 -11.706314 0.846800 -5.869200 -16.405500 1.103451 -2.807437 1.567463 10.309870 13.979928 -15.376685 -1.180523 -8.883045 26.822950 -0.252023 -0.488324 -5.566795 -0.029300 -1.104400 3.036100 -2.180445 -0.845338 -2.656348 1.834834 -1.633499 -2.618258 4.520560 -0.327888 -0.890649 -12.739151 -8.463809 -15.850964 5.311803 -9.072061 18.665146 2.965100 -4.808700 13.266700 -10.852012 -0.398639 -1.843714 -78.179218 1.646756 30.484610 11.125947 -21.879317 -2.475597 -0.251261 -1.593551 10.365669 14.660260 22.748648 6.161000 -7.125000 0.000000 0.000000 -15.627100 54.429900 -3.689000 9.645982 2.064962 -1.377886 71.781419 0.298931 22.377263 -15.507067 22.404094 -3.798927 0.636929 -0.553571 18.665034 -19.056061 2.271182 -0.937100 7.125000 0.000000 0.000000 5.177800 -27.207800 2.246000 
-0.832277 17.924628 2.259585 -0.276896 -14.858063 7.470447 -2.324202 2.711924 2.650048 -15.045872 -4.984396 -7.987476 -0.326171 6.093328 20.019662 -3.816865 16.938999 -11.763807 0.842400 -5.854300 -16.362400 1.103881 -2.815951 1.573191 10.350569 13.961930 -15.275129 -1.182501 -8.886483 26.836792 -0.227647 -0.613817 -5.635373 -0.019000 -0.890700 2.448000 -2.143864 -0.871492 -2.602218 1.809239 -1.667279 -2.544036 4.456465 -0.351127 -0.805497 -12.662056 -8.428917 -16.022435 5.256756 -9.022784 18.754827 2.934800 -4.783700 13.323400 -10.852273 -0.411076 -1.834426 -78.132562 1.474907 30.435505 11.091093 -21.820704 -2.463234 -0.256143 -1.583890 10.411603 14.695914 22.494826 6.116700 -7.125000 0.000000 0.000000 -15.454200 54.181400 -3.552000 9.649987 2.063072 -1.377111 71.840448 0.429594 22.511190 -15.480037 22.358385 -3.782488 0.657404 -0.540122 18.621717 -19.113933 1.923948 -0.808600 7.125000 0.000000 0.000000 5.135900 -27.593700 2.180900 
